<mxfile host="app.diagrams.net" modified="2022-03-17T00:29:59.430Z" agent="5.0 (Windows NT 10.0; Win64; x64) AppleWebKit/537.36 (KHTML, like Gecko) Chrome/97.0.4692.99 Safari/537.36 OPR/83.0.4254.70" etag="wz5bqhATy81VIrsXqL3M" version="17.1.2" type="github">
  <diagram id="C5RBs43oDa-KdzZeNtuy" name="Page-1">
    <mxGraphModel dx="825" dy="492" grid="1" gridSize="10" guides="1" tooltips="1" connect="1" arrows="1" fold="1" page="1" pageScale="1" pageWidth="827" pageHeight="1169" math="0" shadow="0">
      <root>
        <mxCell id="WIyWlLk6GJQsqaUBKTNV-0" />
        <mxCell id="WIyWlLk6GJQsqaUBKTNV-1" parent="WIyWlLk6GJQsqaUBKTNV-0" />
        <mxCell id="GuQHbeE2ovt65qRzgj8--3" value="" style="edgeStyle=orthogonalEdgeStyle;rounded=0;orthogonalLoop=1;jettySize=auto;html=1;" edge="1" parent="WIyWlLk6GJQsqaUBKTNV-1" source="GuQHbeE2ovt65qRzgj8--0" target="GuQHbeE2ovt65qRzgj8--1">
          <mxGeometry relative="1" as="geometry" />
        </mxCell>
        <mxCell id="GuQHbeE2ovt65qRzgj8--0" value="INICIO&amp;nbsp;" style="rounded=1;whiteSpace=wrap;html=1;" vertex="1" parent="WIyWlLk6GJQsqaUBKTNV-1">
          <mxGeometry x="130" y="110" width="120" height="60" as="geometry" />
        </mxCell>
        <mxCell id="GuQHbeE2ovt65qRzgj8--4" value="" style="edgeStyle=orthogonalEdgeStyle;rounded=0;orthogonalLoop=1;jettySize=auto;html=1;" edge="1" parent="WIyWlLk6GJQsqaUBKTNV-1" source="GuQHbeE2ovt65qRzgj8--1" target="GuQHbeE2ovt65qRzgj8--2">
          <mxGeometry relative="1" as="geometry" />
        </mxCell>
        <mxCell id="GuQHbeE2ovt65qRzgj8--1" value="X=2&lt;br&gt;Y=5" style="shape=parallelogram;perimeter=parallelogramPerimeter;whiteSpace=wrap;html=1;fixedSize=1;" vertex="1" parent="WIyWlLk6GJQsqaUBKTNV-1">
          <mxGeometry x="130" y="210" width="120" height="60" as="geometry" />
        </mxCell>
        <mxCell id="GuQHbeE2ovt65qRzgj8--8" value="" style="edgeStyle=orthogonalEdgeStyle;rounded=0;orthogonalLoop=1;jettySize=auto;html=1;" edge="1" parent="WIyWlLk6GJQsqaUBKTNV-1" source="GuQHbeE2ovt65qRzgj8--2" target="GuQHbeE2ovt65qRzgj8--7">
          <mxGeometry relative="1" as="geometry" />
        </mxCell>
        <mxCell id="GuQHbeE2ovt65qRzgj8--2" value="Z=X+Y" style="rounded=0;whiteSpace=wrap;html=1;" vertex="1" parent="WIyWlLk6GJQsqaUBKTNV-1">
          <mxGeometry x="130" y="310" width="120" height="60" as="geometry" />
        </mxCell>
        <mxCell id="GuQHbeE2ovt65qRzgj8--10" value="" style="edgeStyle=orthogonalEdgeStyle;rounded=0;orthogonalLoop=1;jettySize=auto;html=1;" edge="1" parent="WIyWlLk6GJQsqaUBKTNV-1" source="GuQHbeE2ovt65qRzgj8--7" target="GuQHbeE2ovt65qRzgj8--9">
          <mxGeometry relative="1" as="geometry" />
        </mxCell>
        <mxCell id="GuQHbeE2ovt65qRzgj8--7" value="Z" style="shape=document;whiteSpace=wrap;html=1;boundedLbl=1;" vertex="1" parent="WIyWlLk6GJQsqaUBKTNV-1">
          <mxGeometry x="130" y="430" width="120" height="80" as="geometry" />
        </mxCell>
        <mxCell id="GuQHbeE2ovt65qRzgj8--9" value="FIM" style="rounded=1;whiteSpace=wrap;html=1;" vertex="1" parent="WIyWlLk6GJQsqaUBKTNV-1">
          <mxGeometry x="130" y="560" width="120" height="60" as="geometry" />
        </mxCell>
      </root>
    </mxGraphModel>
  </diagram>
</mxfile>
